<svg xmlns="http://www.w3.org/2000/svg" xmlns:xlink="http://www.w3.org/1999/xlink" width="16" height="16" viewBox="0 0 36.062 36">
  <defs>
    <style>
      .cls-1 {
        fill: #fdd95b;
        fill-rule: evenodd;
        filter: url(#filter);
      }
    </style>
    <filter id="filter" x="141" y="1051" width="36.062" height="36" filterUnits="userSpaceOnUse">
      <feFlood result="flood" flood-color="#fff"/>
      <feComposite result="composite" operator="in" in2="SourceGraphic"/>
      <feBlend result="blend" in2="SourceGraphic"/>
    </filter>
  </defs>
  <path id="globe_logo" class="cls-1" d="M159.03,1051a18,18,0,1,0,18.03,18A18.016,18.016,0,0,0,159.03,1051Zm-0.041,24.63a8.2,8.2,0,0,1-1.866-.21l-0.688,2.9h2.551l-0.566,2.38h-4.986l1.462-6.15,0.585-2.46,1.938-8.14h2.434l-2.179,9.16a5.707,5.707,0,0,0,1.315.15,5.845,5.845,0,1,0,0-11.69,5.783,5.783,0,0,0-1.026.09,5.846,5.846,0,0,0-4.744,4.76,1.192,1.192,0,0,1-2.353-.38,8.227,8.227,0,0,1,7.681-6.84l0.246-1.03a1.184,1.184,0,0,1,2.305.54l-0.168.71A8.219,8.219,0,0,1,158.989,1075.63Z" transform="translate(-141 -1051)"/>
</svg>
