<svg id="logo" xmlns="http://www.w3.org/2000/svg" width="256" height="256" viewBox="0 0 256 256">
  <defs>
    <style>
      .cls-1 {
        fill: #edd063;
        opacity: 0;
      }

      .cls-2 {
        fill: #eac64a;
      }

      .cls-2, .cls-3, .cls-4 {
        fill-rule: evenodd;
      }

      .cls-3 {
        fill: #fff;
      }

      .cls-4 {
        fill: #434343;
      }
    </style>
  </defs>
  <rect class="cls-1" width="256" height="256"/>
  <path id="circle" class="cls-2" d="M253,128A125,125,0,1,1,128,3,125,125,0,0,1,253,128Z"/>
  <path id="p" class="cls-3" d="M184.823,116.974a57.16,57.16,0,0,1-70.04,55.635l-4.773,20.113h17.684l-3.925,16.515H89.207l10.137-42.693,4.053-17.069L116.831,92.9h16.878L118.6,156.536a40.6,40.6,0,1,0-30.889-46.467,8.275,8.275,0,0,1-8.144,6.905h0a8.233,8.233,0,0,1-8.164-9.525,57.13,57.13,0,0,1,53.251-47.506l1.7-7.18a8.212,8.212,0,0,1,7.99-6.315h0a8.211,8.211,0,0,1,7.99,10.107l-1.164,4.907A57.122,57.122,0,0,1,184.823,116.974Z"/>
  <path id="circle-2" data-name="circle" class="cls-3" d="M205.5,158.132a47.539,47.539,0,1,1-47.372,47.538A47.455,47.455,0,0,1,205.5,158.132Z"/>
  <path id="alpha" class="cls-4" d="M205.5,163A42.5,42.5,0,1,1,163,205.5,42.5,42.5,0,0,1,205.5,163Zm9.006,25.1h8.62s-5.485,24.05-5.485,25.3,0.671,5.535,4.31,5.535,3.526-4.744,3.526-4.744h2.743s0.672,10.956-7.053,10.674c-5.112,0-7.053-7.907-7.053-7.907a18.651,18.651,0,0,1-15.673,8.3c-10.8,0-15.674-7.963-15.674-20.558s6.382-18.976,16.066-18.976,12.93,11.86,12.93,11.86Zm-4.31,15.418s-3.471,18.469-11.363,18.186-7.445-15.023-7.445-15.023-0.56-15.87,7.445-15.814S210.2,203.523,210.2,203.523Z"/>
</svg>
